<svg width="131" height="22" viewBox="0 0 131 29" fill="none" xmlns="http://www.w3.org/2000/svg">
<path d="M0.386 13.935V12.978L12.86 5.355L14.114 7.401L6.293 12.186L3.29 13.44L6.26 14.496L14.279 19.248L13.025 21.228L0.386 13.935ZM17.2781 15.75C17.2781 12.956 17.8941 10.822 19.1261 9.348C20.3801 7.852 22.1731 7.104 24.5051 7.104C25.7371 7.104 26.8041 7.313 27.7061 7.731C28.6301 8.127 29.3891 8.71 29.9831 9.48C30.5771 10.228 31.0171 11.141 31.3031 12.219C31.5891 13.275 31.7321 14.452 31.7321 15.75C31.7321 18.544 31.1051 20.689 29.8511 22.185C28.6191 23.659 26.8371 24.396 24.5051 24.396C23.2731 24.396 22.1951 24.198 21.2711 23.802C20.3691 23.384 19.6211 22.801 19.0271 22.053C18.4331 21.283 17.9931 20.37 17.7071 19.314C17.4211 18.236 17.2781 17.048 17.2781 15.75ZM20.0171 15.75C20.0171 16.586 20.0941 17.389 20.2481 18.159C20.4241 18.929 20.6881 19.6 21.0401 20.172C21.3921 20.744 21.8541 21.206 22.4261 21.558C22.9981 21.91 23.6911 22.086 24.5051 22.086C27.4971 22.108 28.9931 19.996 28.9931 15.75C28.9931 14.892 28.9051 14.078 28.7291 13.308C28.5751 12.538 28.3221 11.867 27.9701 11.295C27.6181 10.723 27.1561 10.272 26.5841 9.942C26.0121 9.59 25.3191 9.414 24.5051 9.414C21.5131 9.392 20.0171 11.504 20.0171 15.75ZM33.7165 7.5H36.2905V4.233L38.9305 3.474V7.5H43.4185V9.81H38.9305V18.951C38.9305 20.095 39.0735 20.909 39.3595 21.393C39.6455 21.855 40.1295 22.086 40.8115 22.086C41.3835 22.086 41.8675 22.031 42.2635 21.921C42.6595 21.789 43.0995 21.624 43.5835 21.426L44.1775 23.439C43.5835 23.725 42.9345 23.956 42.2305 24.132C41.5265 24.308 40.7675 24.396 39.9535 24.396C38.6115 24.396 37.6655 24.022 37.1155 23.274C36.5655 22.504 36.2905 21.228 36.2905 19.446V9.81H33.7165V7.5ZM46.8131 8.721C47.6491 8.215 48.6171 7.841 49.7171 7.599C50.8391 7.357 52.0051 7.236 53.2151 7.236C54.3591 7.236 55.2721 7.39 55.9541 7.698C56.6581 8.006 57.1861 8.413 57.5381 8.919C57.9121 9.403 58.1541 9.942 58.2641 10.536C58.3961 11.13 58.4621 11.724 58.4621 12.318C58.4621 13.638 58.4291 14.925 58.3631 16.179C58.2971 17.433 58.2641 18.621 58.2641 19.743C58.2641 20.557 58.2971 21.327 58.3631 22.053C58.4291 22.779 58.5501 23.45 58.7261 24.066H56.7791L56.0861 21.756H55.9211C55.7231 22.064 55.4701 22.372 55.1621 22.68C54.8761 22.966 54.5241 23.23 54.1061 23.472C53.6881 23.692 53.2041 23.879 52.6541 24.033C52.1041 24.187 51.4771 24.264 50.7731 24.264C50.0691 24.264 49.4091 24.154 48.7931 23.934C48.1991 23.714 47.6821 23.406 47.2421 23.01C46.8021 22.592 46.4501 22.097 46.1861 21.525C45.9441 20.953 45.8231 20.304 45.8231 19.578C45.8231 18.61 46.0211 17.807 46.4171 17.169C46.8131 16.509 47.3631 15.992 48.0671 15.618C48.7931 15.222 49.6511 14.947 50.6411 14.793C51.6531 14.617 52.7641 14.529 53.9741 14.529C54.2821 14.529 54.5791 14.529 54.8651 14.529C55.1731 14.529 55.4811 14.551 55.7891 14.595C55.8551 13.935 55.8881 13.341 55.8881 12.813C55.8881 11.603 55.6461 10.756 55.1621 10.272C54.6781 9.788 53.7981 9.546 52.5221 9.546C52.1481 9.546 51.7411 9.579 51.3011 9.645C50.8831 9.689 50.4431 9.766 49.9811 9.876C49.5411 9.964 49.1121 10.085 48.6941 10.239C48.2981 10.371 47.9461 10.525 47.6381 10.701L46.8131 8.721ZM51.4991 21.954C52.1151 21.954 52.6651 21.877 53.1491 21.723C53.6331 21.547 54.0511 21.338 54.4031 21.096C54.7551 20.832 55.0411 20.546 55.2611 20.238C55.5031 19.93 55.6791 19.633 55.7891 19.347V16.608C55.4811 16.586 55.1621 16.575 54.8321 16.575C54.5241 16.553 54.2161 16.542 53.9081 16.542C53.2261 16.542 52.5551 16.586 51.8951 16.674C51.2571 16.74 50.6851 16.883 50.1791 17.103C49.6951 17.301 49.2991 17.587 48.9911 17.961C48.7051 18.313 48.5621 18.764 48.5621 19.314C48.5621 20.084 48.8371 20.722 49.3871 21.228C49.9371 21.712 50.6411 21.954 51.4991 21.954ZM68.2002 17.169L69.1242 20.304H69.1572L69.9822 17.103L73.6782 7.5H76.5162L69.4872 24.363H68.3652L61.2042 7.5H64.2402L68.2002 17.169ZM79.9291 7.5H82.5691V24H79.9291V7.5ZM79.3681 2.484C79.3681 1.978 79.5331 1.549 79.8631 1.197C80.2151 0.822999 80.6551 0.636 81.1831 0.636C81.7111 0.636 82.1621 0.822999 82.5361 1.197C82.9101 1.549 83.0971 1.978 83.0971 2.484C83.0971 2.99 82.9101 3.408 82.5361 3.738C82.1621 4.068 81.7111 4.233 81.1831 4.233C80.6551 4.233 80.2151 4.068 79.8631 3.738C79.5331 3.408 79.3681 2.99 79.3681 2.484ZM87.2742 15.75C87.2742 12.956 87.8902 10.822 89.1222 9.348C90.3762 7.852 92.1692 7.104 94.5012 7.104C95.7332 7.104 96.8002 7.313 97.7022 7.731C98.6262 8.127 99.3852 8.71 99.9792 9.48C100.573 10.228 101.013 11.141 101.299 12.219C101.585 13.275 101.728 14.452 101.728 15.75C101.728 18.544 101.101 20.689 99.8472 22.185C98.6152 23.659 96.8332 24.396 94.5012 24.396C93.2692 24.396 92.1912 24.198 91.2672 23.802C90.3652 23.384 89.6172 22.801 89.0232 22.053C88.4292 21.283 87.9892 20.37 87.7032 19.314C87.4172 18.236 87.2742 17.048 87.2742 15.75ZM90.0132 15.75C90.0132 16.586 90.0902 17.389 90.2442 18.159C90.4202 18.929 90.6842 19.6 91.0362 20.172C91.3882 20.744 91.8502 21.206 92.4222 21.558C92.9942 21.91 93.6872 22.086 94.5012 22.086C97.4932 22.108 98.9892 19.996 98.9892 15.75C98.9892 14.892 98.9012 14.078 98.7252 13.308C98.5712 12.538 98.3182 11.867 97.9662 11.295C97.6142 10.723 97.1522 10.272 96.5802 9.942C96.0082 9.59 95.3152 9.414 94.5012 9.414C91.5092 9.392 90.0132 11.504 90.0132 15.75ZM114.174 0.504L116.253 1.428L104.208 28.62L102.129 27.696L114.174 0.504ZM130.295 12.648V13.605L117.821 21.228L116.567 19.215L124.388 14.43L127.391 13.176L124.421 12.12L116.402 7.368L117.656 5.355L130.295 12.648Z" fill="#20BF55"/>
</svg>
