<svg xmlns="http://www.w3.org/2000/svg" xmlns:xlink="http://www.w3.org/1999/xlink" width="200" zoomAndPan="magnify" viewBox="0 0 150 899.99999" height="1200" preserveAspectRatio="xMidYMid meet" version="1.0"><defs><clipPath id="115db7468d"><path d="M 0 0 L 128.699219 0 L 128.699219 672.925781 L 0 672.925781 Z M 0 0 " clip-rule="nonzero"/></clipPath><clipPath id="613939f047"><path d="M 0 610.132812 L 130 610.132812 L 130 809.96875 L 0 809.96875 Z M 0 610.132812 " clip-rule="nonzero"/></clipPath></defs><g clip-path="url(#115db7468d)"><path fill="#10002b" d="M 96.523438 -49.988281 L 101.902344 -36.585938 C 107.085938 -23.234375 118.144531 3.726562 112.613281 30.332031 C 107.085938 57.09375 85.96875 84.050781 80.4375 110.65625 C 74.910156 137.414062 85.96875 164.375 77.773438 190.980469 C 69.882812 217.738281 42.734375 244.695312 26.796875 271.304688 C 10.558594 298.0625 5.53125 325.019531 13.421875 351.628906 C 21.621094 378.386719 42.734375 405.34375 53.640625 431.949219 C 64.351562 458.710938 64.351562 485.667969 72.394531 512.277344 C 80.4375 539.035156 96.523438 565.992188 107.234375 592.597656 C 118.144531 619.355469 123.167969 646.3125 126.035156 659.367188 L 128.699219 672.921875 L 0 672.921875 L 0 659.515625 C 0 646.164062 0 619.207031 0 592.597656 C 0 565.839844 0 538.882812 0 512.277344 C 0 485.515625 0 458.558594 0 431.949219 C 0 405.195312 0 378.234375 0 351.628906 C 0 324.871094 0 297.914062 0 271.304688 C 0 244.546875 0 217.585938 0 190.980469 C 0 164.222656 0 137.265625 0 110.65625 C 0 83.902344 0 56.9375 0 30.332031 C 0 3.574219 0 -23.382812 0 -36.4375 L 0 -49.988281 Z M 96.523438 -49.988281 " fill-opacity="1" fill-rule="nonzero"/></g><g clip-path="url(#613939f047)"><path fill="#10002b" d="M 98.242188 651.03125 C 112.488281 657.175781 127.34375 656.484375 129.726562 677.96875 C 131.828125 696.953125 117.707031 699.9375 107.910156 714.234375 C 98.113281 728.53125 92.644531 744.082031 78.90625 758.625 C 65.042969 773.046875 54.480469 779.457031 39.5625 788.683594 C 24.640625 797.910156 -0.273438 822.414062 -8.542969 801.351562 C -16.941406 780.15625 -8.542969 811.632812 -8.542969 672.695312 C -14.523438 654.386719 -8.960938 617.164062 6.175781 611.265625 C 26.15625 605.730469 36.417969 625.574219 54.480469 633.351562 C 72.671875 641.25 84.121094 645.011719 98.242188 651.03125 Z M 98.242188 651.03125 " fill-opacity="1" fill-rule="nonzero"/></g></svg>