<svg xmlns="http://www.w3.org/2000/svg" xmlns:xlink="http://www.w3.org/1999/xlink" width="140" zoomAndPan="magnify" viewBox="0 0 104.88 60" height="80" preserveAspectRatio="xMidYMid meet" version="1.0"><defs><g/></defs><g fill="#03071e" fill-opacity="1"><g transform="translate(10.778018, 36.942591)"><g><path d="M 6.269531 -1.632812 L 6.46875 -1.648438 L 6.589844 -1.8125 L 6.558594 -2.007812 L 6.558594 -2.960938 L 6.589844 -3.1875 L 6.589844 -3.460938 L 6.46875 -3.71875 L 6.253906 -3.972656 L 6.042969 -4.066406 L 5.636719 -4.351562 L 5.441406 -4.414062 L 5.03125 -4.667969 L 4.414062 -4.957031 L 4.230469 -5.105469 L 3.988281 -5.199219 L 3.867188 -5.347656 L 4.003906 -5.574219 L 4.1875 -5.679688 L 4.414062 -5.757812 L 4.625 -5.921875 L 5.015625 -6.121094 L 5.242188 -6.210938 L 6.042969 -6.695312 L 6.269531 -6.769531 L 6.46875 -6.996094 L 6.558594 -7.296875 L 6.589844 -7.949219 L 6.558594 -8.777344 L 6.574219 -8.960938 L 6.4375 -9.1875 L 6.269531 -9.171875 L 6.042969 -9.035156 L 5.605469 -8.855469 L 3.6875 -7.828125 L 3.460938 -7.738281 L 3.039062 -7.433594 L 2.855469 -7.390625 L 2.660156 -7.253906 L 2.433594 -7.132812 L 2.175781 -7.042969 L 1.769531 -6.800781 L 1.570312 -6.722656 L 1.359375 -6.589844 L 1.117188 -6.496094 L 0.921875 -6.363281 L 0.710938 -6.136719 L 0.605469 -5.726562 L 0.621094 -5.53125 L 0.589844 -4.925781 L 0.695312 -4.609375 L 0.9375 -4.414062 L 1.148438 -4.292969 L 1.34375 -4.1875 L 1.570312 -4.109375 L 1.78125 -3.972656 L 2.007812 -3.882812 L 3.371094 -3.128906 L 3.6875 -2.992188 L 3.929688 -2.855469 L 4.125 -2.71875 L 4.351562 -2.613281 L 4.53125 -2.476562 L 5.425781 -2.085938 L 6.042969 -1.691406 Z M 6.269531 -1.632812 "/></g></g></g><g fill="#03071e" fill-opacity="1"><g transform="translate(18.256987, 36.942591)"><g><path d="M 1.996094 0 L 2.492188 -0.152344 L 2.78125 -0.40625 L 2.886719 -0.664062 L 3.039062 -0.921875 L 3.15625 -1.253906 L 3.597656 -2.007812 L 3.808594 -2.597656 L 4.09375 -3.082031 L 5.273438 -5.5625 L 5.425781 -5.789062 L 5.53125 -6.074219 L 6.195312 -7.464844 L 6.300781 -7.738281 L 6.996094 -9.066406 L 7.085938 -9.324219 L 7.480469 -10.152344 L 7.480469 -10.410156 L 7.269531 -10.546875 L 6.980469 -10.578125 L 6.664062 -10.515625 L 6.074219 -10.5625 L 5.5 -10.546875 L 5.121094 -10.457031 L 4.878906 -10.183594 L 3.671875 -7.707031 L 3.566406 -7.417969 L 3.398438 -7.175781 L 3.277344 -6.890625 L 3.113281 -6.632812 L 2.871094 -6.089844 L 2.765625 -5.800781 L 0.121094 -0.421875 L 0.136719 -0.105469 L 0.515625 0 L 0.816406 0.046875 L 1.253906 0.03125 L 1.542969 -0.015625 Z M 1.996094 0 "/></g></g></g><g fill="#03071e" fill-opacity="1"><g transform="translate(25.917264, 36.942591)"><g><path d="M 6.058594 0.195312 L 7.402344 0.0585938 L 7.976562 -0.121094 L 9.324219 -0.726562 L 10.378906 -1.738281 L 10.578125 -2.007812 L 11.167969 -3.050781 L 11.273438 -3.339844 L 11.316406 -3.640625 L 11.410156 -3.882812 L 11.46875 -4.214844 L 11.542969 -5.273438 L 11.46875 -6.316406 L 11.347656 -6.875 L 11.226562 -7.191406 L 11.152344 -7.539062 L 10.878906 -8.039062 L 10.773438 -8.3125 L 10.578125 -8.566406 L 10.394531 -8.75 L 10.199219 -9.019531 L 9.550781 -9.609375 L 8.777344 -10.09375 L 6.800781 -10.714844 L 6.089844 -10.726562 L 5.03125 -10.667969 L 4.730469 -10.609375 L 4.425781 -10.515625 L 4.15625 -10.394531 L 3.582031 -10.246094 L 2.808594 -9.761719 L 2.597656 -9.578125 L 2.117188 -9.246094 L 1.707031 -8.792969 L 1.195312 -8.039062 L 1.058594 -7.78125 L 0.769531 -6.949219 L 0.648438 -6.300781 L 0.589844 -4.546875 L 0.753906 -3.597656 L 0.980469 -3.082031 L 1.074219 -2.765625 L 1.222656 -2.492188 L 1.933594 -1.527344 L 2.355469 -1.117188 L 2.554688 -0.890625 L 3.582031 -0.347656 L 3.867188 -0.226562 L 5.152344 0.152344 Z M 5.636719 -2.464844 L 5.332031 -2.570312 L 5.0625 -2.597656 L 4.546875 -2.871094 L 4.078125 -3.277344 L 3.929688 -3.492188 L 3.730469 -3.703125 L 3.445312 -4.546875 L 3.371094 -5.304688 L 3.382812 -5.757812 L 3.492188 -6.316406 L 3.582031 -6.589844 L 3.761719 -6.800781 L 3.898438 -7.054688 L 4.09375 -7.296875 L 4.320312 -7.496094 L 4.761719 -7.796875 L 5.03125 -7.933594 L 5.347656 -8.007812 L 6.042969 -8.070312 L 6.769531 -8.023438 L 7.570312 -7.675781 L 8.039062 -7.328125 L 8.386719 -6.816406 L 8.507812 -6.542969 L 8.597656 -6.242188 L 8.703125 -5.96875 L 8.765625 -5.320312 L 8.671875 -4.5625 L 8.539062 -3.945312 L 8.371094 -3.71875 L 8.234375 -3.492188 L 8.054688 -3.21875 L 7.585938 -2.855469 L 7.3125 -2.734375 L 7.070312 -2.597656 L 6.800781 -2.570312 L 6.511719 -2.492188 Z M 5.636719 -2.464844 "/></g></g></g><g fill="#03071e" fill-opacity="1"><g transform="translate(38.034711, 36.942591)"><g><path d="M 2.902344 -0.46875 L 3.023438 -0.152344 L 3.339844 0 L 3.625 -0.03125 L 3.929688 0 L 4.214844 -0.03125 L 5.152344 -0.03125 L 5.453125 -0.152344 L 5.574219 -0.453125 L 5.5625 -0.742188 L 5.589844 -1.089844 L 5.574219 -1.691406 L 5.53125 -1.949219 L 5.574219 -2.265625 L 5.605469 -3.1875 L 5.574219 -3.460938 L 5.621094 -4.09375 L 5.5625 -7.101562 L 5.605469 -7.402344 L 5.574219 -7.738281 L 5.695312 -8.007812 L 6.027344 -8.144531 L 6.285156 -8.160156 L 6.589844 -8.144531 L 6.859375 -8.175781 L 7.691406 -8.160156 L 8.039062 -8.296875 L 8.191406 -8.597656 L 8.160156 -8.914062 L 8.191406 -10.152344 L 8.039062 -10.457031 L 7.738281 -10.609375 L 7.375 -10.578125 L 7.132812 -10.609375 L 6.84375 -10.609375 L 6.511719 -10.5625 L 6.210938 -10.5625 L 5.90625 -10.59375 L 5.605469 -10.59375 L 5.257812 -10.546875 L 0.753906 -10.578125 L 0.421875 -10.425781 L 0.273438 -10.125 L 0.257812 -8.613281 L 0.421875 -8.28125 L 0.726562 -8.128906 L 1.117188 -8.175781 L 2.464844 -8.160156 L 2.734375 -7.992188 L 2.886719 -7.707031 L 2.929688 -6.042969 L 2.886719 -5.574219 L 2.917969 -5.289062 L 2.886719 -4.988281 L 2.886719 -4.382812 L 2.929688 -3.945312 L 2.871094 -3.492188 L 2.886719 -3.1875 L 2.871094 -2.871094 L 2.917969 -1.949219 L 2.886719 -1.648438 Z M 2.902344 -0.46875 "/></g></g></g><g fill="#03071e" fill-opacity="1"><g transform="translate(46.480659, 36.942591)"><g><path d="M 0.195312 -0.40625 L 0.273438 -0.0898438 L 0.574219 -0.015625 L 1.902344 -0.015625 L 2.296875 0.03125 L 2.644531 -0.121094 L 2.917969 -0.394531 L 3.171875 -0.90625 L 3.429688 -1.195312 L 3.792969 -1.34375 L 4.09375 -1.316406 L 4.941406 -1.328125 L 5.257812 -1.285156 L 5.605469 -1.328125 L 5.878906 -1.328125 L 6.195312 -1.300781 L 6.90625 -1.328125 L 7.402344 -1.164062 L 7.722656 -0.921875 L 7.796875 -0.648438 L 7.964844 -0.378906 L 8.21875 -0.136719 L 8.613281 0.015625 L 8.886719 -0.015625 L 9.414062 0.03125 L 10.351562 0 L 10.621094 -0.0898438 L 10.683594 -0.40625 L 10.59375 -0.785156 L 10.488281 -1.058594 L 10.289062 -1.316406 L 10.199219 -1.617188 L 10.046875 -1.84375 L 9.957031 -2.128906 L 9.699219 -2.675781 L 9.59375 -2.960938 L 9.445312 -3.21875 L 9.234375 -3.777344 L 9.066406 -4.019531 L 8.945312 -4.320312 L 8.808594 -4.578125 L 8.703125 -4.878906 L 8.566406 -5.105469 L 8.476562 -5.410156 L 8.3125 -5.679688 L 8.191406 -5.9375 L 8.039062 -6.195312 L 7.964844 -6.480469 L 7.660156 -7.011719 L 7.570312 -7.296875 L 7.296875 -7.871094 L 7.222656 -8.113281 L 6.996094 -8.644531 L 6.695312 -9.203125 L 6.453125 -9.777344 L 6.316406 -10.003906 L 6.226562 -10.289062 L 5.953125 -10.578125 L 5.441406 -10.714844 L 4.957031 -10.5625 L 4.667969 -10.289062 L 4.578125 -10.019531 L 3.929688 -8.660156 L 3.761719 -8.386719 L 2.917969 -6.480469 L 2.839844 -6.226562 L 2.675781 -5.953125 L 2.433594 -5.410156 L 2.207031 -5.015625 L 2.101562 -4.730469 L 1.890625 -4.335938 L 1.796875 -4.019531 L 1.664062 -3.777344 L 1.554688 -3.476562 L 1.132812 -2.691406 L 0.695312 -1.585938 L 0.515625 -1.34375 L 0.378906 -1.042969 Z M 4.867188 -3.730469 L 4.578125 -3.851562 L 4.53125 -4.15625 L 5.136719 -5.53125 L 5.273438 -5.773438 L 5.46875 -5.921875 L 5.652344 -5.800781 L 5.847656 -5.214844 L 6.015625 -4.957031 L 6.074219 -4.714844 L 6.226562 -4.414062 L 6.332031 -4.140625 L 6.300781 -3.867188 L 6.042969 -3.746094 Z M 4.867188 -3.730469 "/></g></g></g><g fill="#03071e" fill-opacity="1"><g transform="translate(57.449815, 36.942591)"><g><path d="M 4.261719 -0.273438 L 4.503906 0 L 4.867188 0.136719 L 5.167969 0.167969 L 5.574219 -0.015625 L 5.832031 -0.257812 L 5.921875 -0.542969 L 6.179688 -1.132812 L 6.316406 -1.421875 L 6.46875 -1.675781 L 6.710938 -2.222656 L 6.800781 -2.492188 L 7.707031 -4.425781 L 7.886719 -5.015625 L 8.203125 -5.5625 L 8.371094 -6.136719 L 8.539062 -6.4375 L 8.613281 -6.695312 L 8.6875 -6.980469 L 8.898438 -7.253906 L 8.976562 -7.539062 L 9.171875 -7.765625 L 9.398438 -8.355469 L 9.472656 -8.628906 L 9.640625 -8.886719 L 9.746094 -9.1875 L 9.898438 -9.472656 L 9.957031 -9.730469 L 10.109375 -10.09375 L 10.019531 -10.472656 L 9.761719 -10.5625 L 7.976562 -10.5625 L 7.628906 -10.441406 L 7.359375 -10.152344 L 7.285156 -9.882812 L 5.484375 -5.453125 L 5.332031 -5.167969 L 5.257812 -4.894531 L 5.078125 -4.625 L 4.894531 -4.59375 L 4.773438 -4.867188 L 4.578125 -5.441406 L 4.457031 -5.710938 L 4.367188 -6.015625 L 4.261719 -6.253906 L 4.09375 -6.527344 L 3.914062 -7.132812 L 3.777344 -7.375 L 3.671875 -7.644531 L 3.613281 -7.949219 L 3.082031 -9.035156 L 3.039062 -9.324219 L 2.886719 -9.609375 L 2.78125 -9.882812 L 2.644531 -10.125 L 2.386719 -10.425781 L 2.039062 -10.546875 L 1.195312 -10.59375 L 0.9375 -10.5625 L 0.664062 -10.59375 L 0.347656 -10.578125 L 0.03125 -10.441406 L 0 -10.109375 L 0.0585938 -9.746094 L 0.195312 -9.472656 L 0.421875 -8.898438 L 0.558594 -8.628906 L 0.648438 -8.355469 L 0.816406 -8.070312 L 1.058594 -7.480469 L 1.207031 -7.207031 L 1.664062 -6.105469 L 1.8125 -5.863281 L 2.808594 -3.613281 L 2.886719 -3.355469 L 3.144531 -2.808594 L 3.234375 -2.523438 L 3.625 -1.648438 L 3.777344 -1.421875 L 3.851562 -1.101562 Z M 4.261719 -0.273438 "/></g></g></g><g fill="#03071e" fill-opacity="1"><g transform="translate(67.633305, 36.942591)"><g><path d="M 0.726562 -0.4375 L 0.875 -0.121094 L 1.179688 -0.015625 L 5.667969 0.015625 L 5.953125 -0.136719 L 6.121094 -0.40625 L 6.121094 -0.742188 L 6.089844 -1.011719 L 6.136719 -1.933594 L 5.921875 -2.191406 L 4.910156 -2.507812 L 4.746094 -2.808594 L 4.773438 -4.050781 L 4.714844 -4.652344 L 4.773438 -5.289062 L 4.746094 -5.742188 L 4.773438 -6.210938 L 4.746094 -6.496094 L 4.773438 -6.800781 L 4.746094 -7.117188 L 4.746094 -7.75 L 4.910156 -8.023438 L 5.199219 -8.191406 L 5.53125 -8.203125 L 5.816406 -8.371094 L 5.984375 -8.660156 L 5.984375 -9.550781 L 6.015625 -9.820312 L 5.984375 -10.125 L 5.863281 -10.425781 L 5.378906 -10.5625 L 3.460938 -10.578125 L 3.128906 -10.546875 L 2.207031 -10.5625 L 1.917969 -10.546875 L 1.328125 -10.578125 L 0.996094 -10.425781 L 0.832031 -10.109375 L 0.832031 -9.820312 L 0.800781 -9.566406 L 0.800781 -9.234375 L 0.832031 -8.929688 L 0.832031 -8.644531 L 0.980469 -8.355469 L 1.902344 -8.039062 L 2.101562 -7.765625 L 2.054688 -6.480469 L 2.070312 -6.226562 L 2.117188 -5.878906 L 2.101562 -5.257812 L 2.070312 -4.957031 L 2.128906 -4.367188 L 2.054688 -4.066406 L 2.117188 -3.414062 L 2.085938 -2.824219 L 1.933594 -2.492188 L 0.9375 -2.175781 L 0.753906 -1.890625 L 0.726562 -1.601562 Z M 0.726562 -0.4375 "/></g></g></g><g fill="#03071e" fill-opacity="1"><g transform="translate(74.492806, 36.942591)"><g><path d="M 5.652344 0.179688 L 6.496094 0.167969 L 7.402344 0.046875 L 8.539062 -0.332031 L 9.035156 -0.605469 L 9.261719 -0.785156 L 9.550781 -0.921875 L 9.972656 -1.285156 L 10.167969 -1.554688 L 10.378906 -1.769531 L 11.046875 -2.78125 L 11.273438 -3.355469 L 11.394531 -3.929688 L 11.410156 -4.199219 L 11.484375 -4.503906 L 11.5 -4.820312 L 11.558594 -5.257812 L 11.515625 -6.015625 L 11.410156 -6.632812 L 11.03125 -7.765625 L 10.742188 -8.324219 L 10.410156 -8.777344 L 9.988281 -9.246094 L 9.550781 -9.625 L 9.203125 -9.867188 L 8.75 -10.0625 L 8.523438 -10.230469 L 7.359375 -10.59375 L 6.480469 -10.742188 L 6.074219 -10.757812 L 4.472656 -10.53125 L 3.339844 -10.109375 L 3.113281 -9.941406 L 2.839844 -9.804688 L 2.328125 -9.429688 L 1.585938 -8.566406 L 1.117188 -7.765625 L 0.890625 -7.191406 L 0.632812 -6.027344 L 0.589844 -4.804688 L 0.632812 -4.488281 L 0.710938 -4.214844 L 0.742188 -3.929688 L 0.875 -3.355469 L 1.570312 -1.980469 L 1.753906 -1.796875 L 1.949219 -1.554688 L 2.175781 -1.34375 L 2.34375 -1.148438 L 2.839844 -0.753906 L 4.019531 -0.152344 L 4.457031 0 L 4.789062 0.03125 L 5.332031 0.152344 Z M 6.496094 -2.492188 L 5.667969 -2.492188 L 5.332031 -2.539062 L 4.789062 -2.765625 L 4.546875 -2.902344 L 4.140625 -3.234375 L 3.945312 -3.445312 L 3.730469 -3.730469 L 3.65625 -3.972656 L 3.519531 -4.246094 L 3.398438 -4.804688 L 3.398438 -5.726562 L 3.476562 -6 L 3.519531 -6.285156 L 3.640625 -6.558594 L 3.730469 -6.828125 L 4.09375 -7.3125 L 4.851562 -7.828125 L 5.046875 -7.902344 L 5.636719 -8.054688 L 6.058594 -8.085938 L 6.785156 -7.992188 L 7.054688 -7.933594 L 7.328125 -7.8125 L 7.796875 -7.480469 L 8.386719 -6.859375 L 8.566406 -6.285156 L 8.703125 -6 L 8.75 -5.726562 L 8.71875 -4.804688 L 8.597656 -4.246094 L 8.492188 -3.972656 L 8.324219 -3.703125 L 8.234375 -3.476562 L 8.023438 -3.234375 L 7.296875 -2.734375 L 7.027344 -2.660156 L 6.800781 -2.554688 Z M 6.496094 -2.492188 "/></g></g></g><g fill="#03071e" fill-opacity="1"><g transform="translate(86.610252, 36.942591)"><g><path d="M 0.890625 -1.8125 L 1.027344 -1.632812 L 1.195312 -1.632812 L 1.753906 -1.859375 L 2.070312 -2.085938 L 2.464844 -2.25 L 4.171875 -3.1875 L 4.414062 -3.265625 L 4.730469 -3.429688 L 4.972656 -3.597656 L 5.273438 -3.703125 L 5.453125 -3.839844 L 6.300781 -4.277344 L 6.542969 -4.441406 L 6.722656 -4.625 L 6.84375 -4.910156 L 6.875 -5.789062 L 6.738281 -6.089844 L 6.542969 -6.347656 L 6.347656 -6.480469 L 6.105469 -6.542969 L 5.894531 -6.695312 L 5.695312 -6.753906 L 5.484375 -6.921875 L 5.03125 -7.085938 L 4.820312 -7.222656 L 4.171875 -7.570312 L 3.972656 -7.660156 L 3.671875 -7.886719 L 3.097656 -8.097656 L 2.675781 -8.371094 L 2.492188 -8.445312 L 2.054688 -8.734375 L 1.84375 -8.824219 L 1.632812 -8.898438 L 1.207031 -9.113281 L 1.011719 -9.097656 L 0.859375 -8.945312 L 0.890625 -8.492188 L 0.859375 -8.234375 L 0.890625 -7.3125 L 0.96875 -7.054688 L 1.269531 -6.753906 L 1.585938 -6.558594 L 1.78125 -6.480469 L 2.023438 -6.300781 L 2.839844 -5.894531 L 3.050781 -5.742188 L 3.234375 -5.679688 L 3.492188 -5.546875 L 3.550781 -5.347656 L 3.492188 -5.226562 L 2.839844 -4.851562 L 2.628906 -4.761719 L 2.402344 -4.625 L 2.238281 -4.503906 L 2.007812 -4.382812 L 1.796875 -4.304688 L 1.632812 -4.171875 L 1.195312 -3.957031 L 0.996094 -3.703125 L 0.859375 -3.398438 L 0.90625 -3.21875 L 0.875 -2.992188 L 0.890625 -2.71875 L 0.859375 -2.039062 Z M 0.890625 -1.8125 "/></g></g></g></svg>